<?xml version="1.0" encoding="UTF-8"?>
<svg id="Layer_2" data-name="Layer 2" xmlns="http://www.w3.org/2000/svg" xmlns:xlink="http://www.w3.org/1999/xlink" viewBox="0 0 88.63 31">
  <defs>
    <style>
      .cls-1 {
        fill: #fff;
      }

      .cls-2 {
        fill: url(#linear-gradient);
      }
    </style>
    <linearGradient id="linear-gradient" x1="324.51" y1="-312.24" x2="333.88" y2="-345.6" gradientTransform="translate(-256 -313.17) scale(1 -1)" gradientUnits="userSpaceOnUse">
      <stop offset=".2" stop-color="#000"/>
      <stop offset=".51" stop-color="#ed1e2b" stop-opacity=".49"/>
      <stop offset=".85" stop-color="#2fb88a"/>
    </linearGradient>
  </defs>
  <g id="Layer_1-2" data-name="Layer 1">
    <path d="m14.26,18.79c.21,0,.32.28.32.85s-.11.86-.32.86h-.85v.19c0,2.33-2.22,3.49-6.67,3.49-2.15,0-3.82-.33-4.99-.99-1.16-.65-1.74-1.75-1.74-3.31,0-.35.03-.77.08-1.25.05-.49.13-.95.24-1.38l1.79.42c-.07.3-.14.66-.19,1.09-.05.42-.08.78-.08,1.09,0,.65.15,1.16.46,1.54.31.38.82.66,1.52.83.71.17,1.69.26,2.93.26,1.62,0,2.78-.14,3.49-.42.71-.27,1.07-.67,1.07-1.22,0-.13-.02-.24-.05-.34h-.21c-1.26,0-2.2-.33-2.83-.98l1.28-1.22c.17.17.37.29.61.37.23.07.55.11.94.11h3.2Zm-6.13,8.42c-.28,0-.51-.1-.7-.29-.18-.19-.27-.43-.27-.72s.09-.54.27-.74c.19-.18.43-.27.7-.27s.51.09.69.27c.19.19.29.44.29.74s-.1.53-.29.72c-.18.19-.41.29-.69.29Zm-2.53,0c-.28,0-.51-.1-.7-.29-.18-.19-.27-.43-.27-.72s.09-.54.27-.74c.19-.18.43-.27.7-.27s.51.09.69.27c.19.19.29.44.29.74s-.1.53-.29.72c-.18.19-.41.29-.69.29Zm17.51-8.42l-.26,1.71h-8.61c-.21,0-.32-.29-.32-.86s.11-.85.32-.85h6.35v-2.43c0-.81-.26-1.46-.78-1.94-.51-.48-1.2-.72-2.06-.72-.95,0-1.83.29-2.66.88l-.8-1.57c1.05-.68,2.2-1.02,3.46-1.02.91,0,1.71.19,2.42.56.71.37,1.27.89,1.66,1.55.41.66.61,1.41.61,2.26v2.43h.67Zm5.98,0c.21,0,.32.28.32.85s-.11.86-.32.86h-3.74v-11.86h1.84v10.14h1.9Zm10.8,0c.21,0,.32.28.32.85s-.11.86-.32.86h-10.8c-.21,0-.32-.29-.32-.86s.11-.85.32-.85h1.94c-.48-.68-.72-1.45-.72-2.3,0-.8.2-1.52.59-2.16.39-.65.93-1.16,1.62-1.52.68-.37,1.43-.56,2.24-.56,1.02,0,2.12.29,3.3.88v5.66h1.84Zm-7.74-2.32c0,.59.17,1.09.5,1.5.34.41.8.68,1.38.82h2.19v-4.58c-.54-.17-1.02-.26-1.44-.26-.5,0-.95.11-1.36.34-.39.21-.7.51-.93.9-.22.38-.34.81-.34,1.28Zm2.62-5.58c-.31,0-.57-.11-.77-.32-.2-.21-.3-.48-.3-.8s.1-.58.3-.78c.2-.21.46-.32.77-.32s.57.11.77.32c.2.2.3.46.3.78s-.1.59-.3.8c-.2.21-.46.32-.77.32Zm8.38,2.35c1.02.32,1.83.97,2.43,1.95.61.97.91,2.17.91,3.6v1.71h-6.61c-.21,0-.32-.29-.32-.86s.11-.85.32-.85h4.77v-.13c0-1.23-.27-2.18-.8-2.85-.52-.68-1.27-1.02-2.24-1.02l-1.15-1.22,4.16-4.21,1.15,1.2-2.62,2.67Z"/>
    <rect class="cls-2" x="57.63" width="31" height="31" rx="4.13" ry="4.13"/>
    <path class="cls-1" d="m69.01,17.45l.41-3.9h-4.1v-1.95h4.31l.51-4.88h1.96l-.51,4.88h3.89l.51-4.88h1.96l-.51,4.88h3.49v1.95h-3.69l-.41,3.9h4.1v1.95h-4.31l-.51,4.88h-1.96l.51-4.88h-3.89l-.51,4.88h-1.96l.51-4.88h-3.49v-1.95h3.69Zm1.96,0h3.89l.41-3.9h-3.89l-.41,3.9Z"/>
  </g>
</svg>