<?xml version="1.0" encoding="UTF-8"?>
<svg id="Layer_2" data-name="Layer 2" xmlns="http://www.w3.org/2000/svg" xmlns:xlink="http://www.w3.org/1999/xlink" viewBox="0 0 23 70">
  <defs>
    <style>
      .cls-1 {
        fill: #8492a7;
      }

      .cls-2 {
        clip-path: url(#clippath);
      }

      .cls-3 {
        fill: none;
      }
    </style>
    <clipPath id="clippath">
      <rect class="cls-3" width="23" height="70"/>
    </clipPath>
  </defs>
  <g id="Layer_1-2" data-name="Layer 1">
    <g class="cls-2">
      <path class="cls-1" d="m0,35.85l.23,1.21,1.97,4.47v.91l1.1,2.58v1.36l1.25,2.84.64,1.97.49.23-.27,1.86h.99v1.97l1.21,2.46-.27.72.99,2.08v.91l1.1,2.62.49,1.63.72.87-.23,2.42.8,1.02.76-1.02.53-1.18.27-1.78.3-.11v-1.52l.87-.99-.42-2.31.68-.95.19-1.36,1.25-1.18-.49-1.21v-1.21s.64-.19.49-.3c-.15-.11-.15-1.21-.15-1.21l-.67-1.67.84-1.4.73-2.5.91-.83-.3-1.02,1.18-1.74.72-1.97.49-1.74-1.02-2.24-.04-1.52.79-1.18-.23-1.4-.27-1.18.27-2.5.72-1.36.38-1.02.91-.3v-2.12l-.15-.76-.07-2.84.23-.53.27-1.18.23-2.58-.38-1.55.38-.83v-1.1l-.42-.38.04-1.33.61-.68v-1.63l-.3-.68-.27-1.25.23-.91.57-.19v-2.65l.76-.87v-1.63l.38-1.25V0h-1.78v1.52s-.45,1.48-2.01,1.93c-1.55.45-2.01.11-2.01.11l-.87.04-.87.04-1.44.23-.27,1.02-.08,1.7-.3.27-.08.95-1.33.64-.47.49-.51,2.84.19,1.21-.68,1.14s-.23,2.42-.68,3.71c-.45,1.29-.87,2.73-1.18,3.83-.3,1.1-.23.64-.99,2.2-.76,1.55-1.1,2.65-1.21,3.37-.11.72-4.28,6.75-6.44,8.6H0Z"/>
    </g>
  </g>
</svg>