<?xml version="1.0" encoding="UTF-8"?>
<svg id="Layer_2" data-name="Layer 2" xmlns="http://www.w3.org/2000/svg" viewBox="0 0 20.5 18">
  <defs>
    <style>
      .cls-1 {
        fill: #fff;
      }
    </style>
  </defs>
  <g id="Layer_1-2" data-name="Layer 1">
    <path class="cls-1" d="m8.04,10h-2.21c-.41,1.17-1.52,2-2.83,2-1.66,0-3-1.34-3-3s1.34-3,3-3c1.31,0,2.42.83,2.83,2h2.21s3.46-6,3.46-6h3.17c.41-1.17,1.52-2,2.83-2,1.66,0,3,1.34,3,3s-1.34,3-3,3c-1.31,0-2.42-.83-2.83-2h-2.02s-2.89,5-2.89,5l2.89,5h2.02c.41-1.17,1.52-2,2.83-2,1.66,0,3,1.34,3,3s-1.34,3-3,3c-1.31,0-2.42-.83-2.83-2h-3.17s-3.46-6-3.46-6Zm9.46,4c-.55,0-1,.45-1,1s.45,1,1,1,1-.45,1-1-.45-1-1-1ZM3,8c-.55,0-1,.45-1,1s.45,1,1,1,1-.45,1-1-.45-1-1-1Zm14.5-6c-.55,0-1,.45-1,1s.45,1,1,1,1-.45,1-1-.45-1-1-1Z"/>
  </g>
</svg>